<svg width="123" height="111" viewBox="0 0 123 111" fill="none" xmlns="http://www.w3.org/2000/svg">
<path d="M67.7986 77.635C67.3888 77.635 66.9834 77.601 66.578 77.5367C66.1769 77.4723 65.7801 77.374 65.4005 77.2453C65.0166 77.1205 64.65 76.9616 64.2964 76.7762C63.947 76.5908 63.6192 76.3789 63.313 76.1406C63.0024 75.9022 62.7221 75.6412 62.4719 75.3574C62.2175 75.0737 61.9975 74.7748 61.8034 74.4532C61.6136 74.1354 61.4584 73.8062 61.3333 73.4619C61.2125 73.1177 61.1263 72.7696 61.0745 72.414C61.0271 72.0545 61.0141 71.6989 61.0357 71.3395C61.0616 70.98 61.1219 70.6244 61.2211 70.2763C61.316 69.9245 61.4497 69.5878 61.6179 69.2586C61.7862 68.9295 61.9846 68.6192 62.2175 68.3203C62.4461 68.0252 62.7092 67.749 62.9981 67.4955C63.2871 67.2383 63.5976 67.0075 63.9384 66.8032C64.2748 66.5989 64.6285 66.4211 64.9994 66.2735C65.3746 66.1222 65.7585 66.0049 66.1596 65.9179L75.3119 63.9127L76.9293 53.8451H71.1886C70.5201 53.8451 69.8602 53.7883 69.2046 53.6748C68.549 53.5575 67.915 53.3911 67.2983 53.1641C66.6815 52.9408 66.0949 52.6684 65.5385 52.3431C64.9821 52.0177 64.4689 51.6469 63.9988 51.2308C63.5243 50.8184 63.1016 50.3681 62.7307 49.8801C62.3598 49.392 62.0493 48.8775 61.7948 48.3365C61.536 47.7954 61.3462 47.2393 61.2125 46.6642C61.0831 46.0891 61.0184 45.5103 61.0184 44.9238V27.0814C61.0184 26.495 61.0831 25.9161 61.2125 25.341C61.3462 24.766 61.536 24.2098 61.7948 23.6688C62.0493 23.1277 62.3598 22.6132 62.7307 22.1251C63.1016 21.6371 63.5243 21.1869 63.9988 20.7745C64.4689 20.3583 64.9821 19.9913 65.5385 19.6659C66.0949 19.3406 66.6815 19.0644 67.2983 18.8412C67.915 18.6142 68.549 18.4477 69.2046 18.3304C69.8602 18.2169 70.5201 18.1602 71.1886 18.1602H88.139C88.5832 18.1602 89.0232 18.198 89.4631 18.2737C89.8987 18.3531 90.3214 18.4628 90.7311 18.6142C91.1452 18.7617 91.5334 18.9471 91.9043 19.1628C92.2752 19.3784 92.6159 19.6281 92.9308 19.9043C93.2456 20.1805 93.5303 20.4794 93.7761 20.8047C94.022 21.1301 94.2333 21.4706 94.4015 21.8338C94.5741 22.1932 94.7035 22.564 94.7897 22.9461C94.876 23.332 94.9191 23.718 94.9191 24.1076C94.9191 24.4973 94.876 24.887 94.7897 25.2691C94.7035 25.6513 94.5741 26.022 94.4015 26.3852C94.2333 26.7447 94.022 27.089 93.7761 27.4105C93.5303 27.7359 93.2456 28.0386 92.9308 28.3148C92.6159 28.591 92.2752 28.8369 91.9043 29.0525C91.5334 29.272 91.1452 29.4536 90.7311 29.6011C90.3214 29.7525 89.8987 29.866 89.4631 29.9416C89.0232 30.0173 88.5832 30.0551 88.139 30.0551H74.5787V41.9501H80.837C81.5055 41.9501 82.1654 42.0069 82.821 42.1204C83.4766 42.2376 84.1106 42.4041 84.7273 42.6311C85.3441 42.8543 85.9307 43.1267 86.4871 43.4521C87.0435 43.7775 87.5567 44.1483 88.0268 44.5644C88.5013 44.9768 88.9196 45.427 89.2906 45.9151C89.6615 46.4032 89.9763 46.9177 90.2308 47.4587C90.4896 47.9997 90.6794 48.5559 90.8131 49.131C90.9425 49.7061 91.0072 50.2849 91.0072 50.8713C91.0072 51.3026 90.9683 51.7302 90.8993 52.1577L88.07 69.5537C87.9751 70.1364 87.7853 70.6963 87.5006 71.2335C87.216 71.767 86.8451 72.2551 86.3922 72.6939C85.9436 73.1328 85.4261 73.5074 84.8481 73.81C84.2745 74.1165 83.6577 74.3397 83.0021 74.4835L69.4418 77.4572C68.9027 77.5745 68.355 77.635 67.7986 77.635Z" fill="#FFDE00"/>
<path d="M53.9977 77.635C52.9324 77.635 51.9188 77.4269 50.9657 77.007L37.4054 71.0595C37.0043 70.8855 36.629 70.6774 36.2797 70.439C35.926 70.2007 35.6025 69.932 35.3135 69.6369C35.0203 69.3418 34.7658 69.024 34.5415 68.6835C34.3215 68.3468 34.1404 67.9912 34.0024 67.6204C33.86 67.2496 33.7608 66.8713 33.7048 66.4816C33.6487 66.0957 33.6358 65.706 33.6703 65.3163C33.7005 64.9266 33.7738 64.5445 33.8946 64.1662C34.011 63.7878 34.1706 63.4246 34.369 63.0765C34.5674 62.7285 34.8046 62.3993 35.0763 62.0891C35.3524 61.7788 35.6543 61.4989 35.9907 61.2416C36.3271 60.9881 36.6894 60.7611 37.0776 60.5682C37.4658 60.3752 37.8712 60.2163 38.2939 60.0915C38.7166 59.9704 39.1479 59.8834 39.5921 59.8342C40.032 59.785 40.4763 59.7774 40.9205 59.8039C41.3648 59.8342 41.8004 59.8985 42.2317 60.0007C42.6587 60.1066 43.0728 60.2428 43.4739 60.4206L47.2176 62.0626V30.0551H33.6573C33.2131 30.0551 32.7732 30.0173 32.3375 29.9416C31.8976 29.866 31.4749 29.7525 31.0652 29.6011C30.6511 29.4536 30.263 29.272 29.892 29.0525C29.5211 28.8369 29.1804 28.591 28.8655 28.3148C28.5507 28.0386 28.2703 27.7359 28.0202 27.4105C27.7743 27.089 27.563 26.7447 27.3948 26.3852C27.2222 26.022 27.0972 25.6513 27.0066 25.2691C26.9203 24.887 26.8772 24.4973 26.8772 24.1076C26.8772 23.718 26.9203 23.332 27.0066 22.9461C27.0972 22.564 27.2222 22.1932 27.3948 21.8338C27.563 21.4706 27.7743 21.1301 28.0202 20.8047C28.2703 20.4794 28.5507 20.1805 28.8655 19.9043C29.1804 19.6281 29.5211 19.3784 29.892 19.1628C30.263 18.9471 30.6511 18.7617 31.0652 18.6142C31.4749 18.4628 31.8976 18.3531 32.3375 18.2737C32.7732 18.198 33.2131 18.1602 33.6573 18.1602H53.9977C54.442 18.1602 54.8862 18.198 55.3218 18.2737C55.7575 18.3531 56.1801 18.4628 56.5942 18.6142C57.0039 18.7617 57.3964 18.9471 57.763 19.1628C58.134 19.3784 58.479 19.6281 58.7939 19.9043C59.1087 20.1805 59.3891 20.4794 59.6349 20.8047C59.8808 21.1301 60.0921 21.4706 60.2603 21.8338C60.4328 22.1932 60.5622 22.564 60.6485 22.9461C60.7347 23.332 60.7779 23.718 60.7779 24.1076V71.6875C60.7779 72.0772 60.7347 72.4631 60.6485 72.849C60.5622 73.2312 60.4328 73.6019 60.2603 73.9614C60.0921 74.3246 59.8808 74.6651 59.6349 74.9904C59.3891 75.3158 59.1087 75.6147 58.7939 75.8909C58.479 76.1671 58.134 76.4168 57.763 76.6324C57.3964 76.8481 57.0039 77.0335 56.5942 77.181C56.1801 77.3324 55.7575 77.4421 55.3218 77.5215C54.8862 77.5972 54.442 77.635 53.9977 77.635Z" fill="#FFDE00"/>
<mask id="mask0_714_253" style="mask-type:luminance" maskUnits="userSpaceOnUse" x="0" y="0" width="123" height="111">
<path d="M0 0H122.56V110.414H0V0Z" fill="white"/>
</mask>
<g mask="url(#mask0_714_253)">
<path d="M61.3576 110.195C60.6244 110.199 59.9127 110.097 59.214 109.896L18.5375 98.0012C17.9337 97.8271 17.373 97.5812 16.8511 97.271C16.3292 96.9569 15.8677 96.5862 15.4623 96.1587C15.0612 95.7311 14.7291 95.2658 14.4746 94.7588C14.2201 94.2518 14.0476 93.7221 13.9613 93.1736L0.401061 6.93499C0.336366 6.51503 0.319112 6.09129 0.357931 5.66755C0.392435 5.24381 0.478696 4.82764 0.616714 4.41903C0.754732 4.01421 0.940194 3.62452 1.17741 3.24997C1.41032 2.8792 1.68635 2.53112 2.00121 2.20954C2.32037 1.88795 2.67405 1.60041 3.06222 1.34692C3.4504 1.09343 3.86876 0.877782 4.3087 0.703746C4.74863 0.525927 5.20581 0.393509 5.68025 0.302708C6.15469 0.211906 6.63344 0.166504 7.1165 0.166504H115.599C116.082 0.166504 116.56 0.211906 117.035 0.302708C117.505 0.393509 117.962 0.525926 118.406 0.699963C118.846 0.877782 119.26 1.09343 119.649 1.34692C120.037 1.60041 120.39 1.88795 120.71 2.20575C121.025 2.52734 121.301 2.87541 121.538 3.24618C121.771 3.61696 121.956 4.00664 122.094 4.41525C122.232 4.82007 122.318 5.23625 122.357 5.65999C122.396 6.08373 122.379 6.50747 122.314 6.92742L108.754 93.1622C108.668 93.7146 108.499 94.2443 108.245 94.7512C107.99 95.262 107.658 95.7273 107.253 96.1549C106.852 96.5824 106.386 96.9532 105.864 97.2672C105.342 97.5812 104.782 97.8271 104.182 98.0012L63.5012 109.896C62.8025 110.097 62.0908 110.199 61.3576 110.195ZM26.8186 87.8919L61.3576 97.9785L95.8966 87.8692L107.818 12.0615H14.9145L26.8186 87.8919Z" fill="#FFDE00"/>
</g>
</svg>
