<svg width="123" height="111" viewBox="0 0 123 111" fill="none" xmlns="http://www.w3.org/2000/svg">
<path d="M67.7986 77.6351C67.3889 77.6351 66.9835 77.6011 66.578 77.5368C66.1769 77.4725 65.7801 77.3741 65.4006 77.2455C65.0167 77.1206 64.6501 76.9617 64.2964 76.7763C63.9471 76.5909 63.6193 76.3791 63.313 76.1407C63.0025 75.9024 62.7222 75.6413 62.472 75.3575C62.2175 75.0738 61.9976 74.7749 61.8035 74.4533C61.6137 74.1355 61.4584 73.8064 61.3333 73.4621C61.2126 73.1178 61.1263 72.7697 61.0746 72.4141C61.0271 72.0547 61.0142 71.699 61.0357 71.3396C61.0616 70.9802 61.122 70.6245 61.2212 70.2765C61.3161 69.9246 61.4498 69.5879 61.618 69.2587C61.7862 68.9296 61.9846 68.6193 62.2175 68.3204C62.4461 68.0253 62.7092 67.7492 62.9982 67.4957C63.2872 67.2384 63.5977 67.0076 63.9384 66.8033C64.2749 66.599 64.6285 66.4212 64.9995 66.2736C65.3747 66.1223 65.7586 66.005 66.1597 65.918L75.312 63.9128L76.9294 53.8452H71.1887C70.5202 53.8452 69.8603 53.7885 69.2047 53.6749C68.5491 53.5577 67.9151 53.3912 67.2983 53.1642C66.6815 52.941 66.095 52.6686 65.5386 52.3432C64.9822 52.0178 64.4689 51.6471 63.9988 51.2309C63.5244 50.8185 63.1017 50.3683 62.7308 49.8802C62.3599 49.3922 62.0493 48.8776 61.7948 48.3366C61.5361 47.7956 61.3463 47.2394 61.2126 46.6643C61.0832 46.0893 61.0185 45.5104 61.0185 44.924V27.0815C61.0185 26.4951 61.0832 25.9162 61.2126 25.3412C61.3463 24.7661 61.5361 24.2099 61.7948 23.6689C62.0493 23.1279 62.3599 22.6133 62.7308 22.1253C63.1017 21.6372 63.5244 21.187 63.9988 20.7746C64.4689 20.3584 64.9822 19.9914 65.5386 19.6661C66.095 19.3407 66.6815 19.0645 67.2983 18.8413C67.9151 18.6143 68.5491 18.4478 69.2047 18.3305C69.8603 18.217 70.5202 18.1603 71.1887 18.1603H88.139C88.5833 18.1603 89.0232 18.1981 89.4631 18.2738C89.8988 18.3532 90.3214 18.4629 90.7312 18.6143C91.1452 18.7618 91.5334 18.9472 91.9043 19.1629C92.2753 19.3785 92.616 19.6282 92.9308 19.9044C93.2457 20.1806 93.5304 20.4795 93.7762 20.8049C94.0221 21.1302 94.2334 21.4707 94.4016 21.8339C94.5741 22.1934 94.7035 22.5641 94.7898 22.9463C94.876 23.3322 94.9192 23.7181 94.9192 24.1078C94.9192 24.4975 94.876 24.8871 94.7898 25.2693C94.7035 25.6514 94.5741 26.0222 94.4016 26.3854C94.2334 26.7448 94.0221 27.0891 93.7762 27.4107C93.5304 27.736 93.2457 28.0387 92.9308 28.3149C92.616 28.5911 92.2753 28.837 91.9043 29.0527C91.5334 29.2721 91.1452 29.4537 90.7312 29.6012C90.3214 29.7526 89.8988 29.8661 89.4631 29.9418C89.0232 30.0174 88.5833 30.0553 88.139 30.0553H74.5788V41.9502H80.837C81.5055 41.9502 82.1654 42.007 82.821 42.1205C83.4766 42.2378 84.1106 42.4042 84.7274 42.6312C85.3442 42.8545 85.9307 43.1269 86.4871 43.4522C87.0435 43.7776 87.5568 44.1484 88.0269 44.5645C88.5013 44.9769 88.9197 45.4272 89.2906 45.9152C89.6615 46.4033 89.9764 46.9178 90.2309 47.4588C90.4897 47.9999 90.6794 48.556 90.8131 49.1311C90.9425 49.7062 91.0072 50.285 91.0072 50.8715C91.0072 51.3028 90.9684 51.7303 90.8994 52.1578L88.07 69.5538C87.9751 70.1365 87.7854 70.6964 87.5007 71.2337C87.216 71.7671 86.8451 72.2552 86.3922 72.694C85.9437 73.1329 85.4261 73.5075 84.8482 73.8101C84.2745 74.1166 83.6578 74.3398 83.0022 74.4836L69.4419 77.4573C68.9028 77.5746 68.355 77.6351 67.7986 77.6351Z" fill="#FFDE00"/>
<path d="M53.9977 77.6351C52.9324 77.6351 51.9188 77.4271 50.9657 77.0071L37.4054 71.0596C37.0043 70.8856 36.629 70.6775 36.2797 70.4391C35.926 70.2008 35.6025 69.9322 35.3135 69.6371C35.0203 69.342 34.7658 69.0242 34.5415 68.6837C34.3215 68.3469 34.1404 67.9913 34.0024 67.6205C33.86 67.2497 33.7608 66.8714 33.7048 66.4817C33.6487 66.0958 33.6358 65.7061 33.6703 65.3164C33.7005 64.9267 33.7738 64.5446 33.8946 64.1663C34.011 63.7879 34.1706 63.4247 34.369 63.0767C34.5674 62.7286 34.8046 62.3994 35.0763 62.0892C35.3524 61.779 35.6543 61.499 35.9907 61.2417C36.3271 60.9882 36.6894 60.7612 37.0776 60.5683C37.4658 60.3753 37.8712 60.2164 38.2939 60.0916C38.7166 59.9705 39.1479 59.8835 39.5921 59.8343C40.032 59.7851 40.4763 59.7776 40.9205 59.804C41.3648 59.8343 41.8004 59.8986 42.2317 60.0008C42.6587 60.1067 43.0728 60.2429 43.4739 60.4207L47.2176 62.0627V30.0553H33.6573C33.2131 30.0553 32.7732 30.0174 32.3375 29.9418C31.8976 29.8661 31.4749 29.7526 31.0652 29.6012C30.6511 29.4537 30.263 29.2721 29.892 29.0527C29.5211 28.837 29.1804 28.5911 28.8655 28.3149C28.5507 28.0387 28.2703 27.736 28.0202 27.4107C27.7743 27.0891 27.563 26.7448 27.3948 26.3854C27.2222 26.0222 27.0972 25.6514 27.0066 25.2693C26.9203 24.8871 26.8772 24.4975 26.8772 24.1078C26.8772 23.7181 26.9203 23.3322 27.0066 22.9463C27.0972 22.5641 27.2222 22.1934 27.3948 21.8339C27.563 21.4707 27.7743 21.1302 28.0202 20.8049C28.2703 20.4795 28.5507 20.1806 28.8655 19.9044C29.1804 19.6282 29.5211 19.3785 29.892 19.1629C30.263 18.9472 30.6511 18.7618 31.0652 18.6143C31.4749 18.4629 31.8976 18.3532 32.3375 18.2738C32.7732 18.1981 33.2131 18.1603 33.6573 18.1603H53.9977C54.442 18.1603 54.8862 18.1981 55.3219 18.2738C55.7575 18.3532 56.1801 18.4629 56.5942 18.6143C57.0039 18.7618 57.3964 18.9472 57.763 19.1629C58.134 19.3785 58.479 19.6282 58.7939 19.9044C59.1087 20.1806 59.3891 20.4795 59.6349 20.8049C59.8808 21.1302 60.0921 21.4707 60.2603 21.8339C60.4328 22.1934 60.5622 22.5641 60.6485 22.9463C60.7347 23.3322 60.7779 23.7181 60.7779 24.1078V71.6877C60.7779 72.0774 60.7347 72.4633 60.6485 72.8492C60.5622 73.2313 60.4328 73.6021 60.2603 73.9615C60.0921 74.3247 59.8808 74.6652 59.6349 74.9906C59.3891 75.3159 59.1087 75.6148 58.7939 75.891C58.479 76.1672 58.134 76.4169 57.763 76.6326C57.3964 76.8482 57.0039 77.0336 56.5942 77.1811C56.1801 77.3325 55.7575 77.4422 55.3219 77.5216C54.8862 77.5973 54.442 77.6351 53.9977 77.6351Z" fill="#FFDE00"/>
<mask id="mask0_714_253" style="mask-type:luminance" maskUnits="userSpaceOnUse" x="0" y="0" width="123" height="111">
<path d="M0 0H122.56V110.414H0V0Z" fill="white"/>
</mask>
<g mask="url(#mask0_714_253)">
<path d="M61.3576 110.195C60.6244 110.199 59.9128 110.097 59.2141 109.896L18.5376 98.0012C17.9337 97.8271 17.373 97.5812 16.8511 97.271C16.3293 96.9569 15.8678 96.5862 15.4623 96.1586C15.0612 95.7311 14.7291 95.2658 14.4746 94.7588C14.2202 94.2518 14.0477 93.7221 13.9614 93.1736L0.401122 6.93499C0.336427 6.51503 0.319173 6.09129 0.357992 5.66755C0.392496 5.24381 0.478757 4.82764 0.616775 4.41903C0.754794 4.01421 0.940255 3.62452 1.17747 3.24997C1.41038 2.8792 1.68642 2.53112 2.00127 2.20954C2.32044 1.88795 2.67411 1.60041 3.06228 1.34692C3.45046 1.09343 3.86882 0.877782 4.30876 0.703746C4.74869 0.525927 5.20588 0.393509 5.68031 0.302708C6.15475 0.211906 6.6335 0.166504 7.11656 0.166504H115.599C116.082 0.166504 116.561 0.211906 117.035 0.302708C117.505 0.393509 117.962 0.525926 118.407 0.699963C118.846 0.877782 119.261 1.09343 119.649 1.34692C120.037 1.60041 120.391 1.88795 120.71 2.20575C121.025 2.52734 121.301 2.87541 121.538 3.24618C121.771 3.61696 121.956 4.00664 122.094 4.41525C122.232 4.82007 122.318 5.23625 122.357 5.65999C122.396 6.08373 122.379 6.50747 122.314 6.92742L108.754 93.1622C108.668 93.7146 108.499 94.2443 108.245 94.7512C107.99 95.262 107.658 95.7273 107.253 96.1549C106.852 96.5824 106.386 96.9532 105.864 97.2672C105.342 97.5812 104.782 97.8271 104.182 98.0012L63.5012 109.896C62.8025 110.097 62.0909 110.199 61.3576 110.195ZM26.8186 87.8919L61.3576 97.9785L95.8967 87.8692L107.818 12.0615H14.9146L26.8186 87.8919Z" fill="#FFDE00"/>
</g>
</svg>
