<svg width="127" height="115" viewBox="0 0 127 115" fill="none" xmlns="http://www.w3.org/2000/svg">
<path d="M70.2548 80.4476C69.8302 80.4476 69.4101 80.4123 68.9899 80.3457C68.5743 80.279 68.1631 80.1771 67.7698 80.0438C67.3721 79.9144 66.9922 79.7498 66.6257 79.5577C66.2637 79.3656 65.924 79.146 65.6067 78.899C65.2849 78.652 64.9944 78.3815 64.7352 78.0875C64.4715 77.7934 64.2435 77.4837 64.0424 77.1505C63.8458 76.8212 63.6849 76.4801 63.5553 76.1233C63.4301 75.7666 63.3407 75.4059 63.2871 75.0374C63.2379 74.6649 63.2245 74.2964 63.2469 73.924C63.2737 73.5515 63.3363 73.183 63.4391 72.8223C63.5374 72.4577 63.6759 72.1088 63.8502 71.7677C64.0245 71.4266 64.2301 71.1052 64.4715 70.7954C64.7083 70.4897 64.981 70.2035 65.2804 69.9408C65.5799 69.6742 65.9017 69.4351 66.2547 69.2233C66.6033 69.0116 66.9698 68.8274 67.3542 68.6745C67.743 68.5177 68.1408 68.3961 68.5564 68.306L78.0403 66.2281L79.7163 55.7958H73.7676C73.0749 55.7958 72.3911 55.737 71.7118 55.6194C71.0324 55.4978 70.3754 55.3253 69.7363 55.0901C69.0972 54.8588 68.4894 54.5765 67.9128 54.2394C67.3363 53.9022 66.8045 53.518 66.3173 53.0868C65.8257 52.6594 65.3877 52.1929 65.0033 51.6872C64.619 51.1814 64.2972 50.6483 64.0335 50.0876C63.7653 49.527 63.5687 48.9507 63.4301 48.3548C63.296 47.7589 63.229 47.1591 63.229 46.5514V28.0625C63.229 27.4549 63.296 26.855 63.4301 26.2591C63.5687 25.6632 63.7653 25.0869 64.0335 24.5263C64.2972 23.9657 64.619 23.4325 65.0033 22.9267C65.3877 22.421 65.8257 21.9545 66.3173 21.5271C66.8045 21.0959 67.3363 20.7156 67.9128 20.3785C68.4894 20.0413 69.0972 19.7551 69.7363 19.5238C70.3754 19.2886 71.0324 19.1161 71.7118 18.9945C72.3911 18.8769 73.0749 18.8181 73.7676 18.8181H91.332C91.7924 18.8181 92.2483 18.8573 92.7041 18.9357C93.1555 19.0181 93.5935 19.1318 94.0181 19.2886C94.4472 19.4415 94.8494 19.6336 95.2338 19.857C95.6181 20.0805 95.9712 20.3393 96.2975 20.6254C96.6237 20.9116 96.9187 21.2214 97.1734 21.5585C97.4282 21.8957 97.6472 22.2485 97.8215 22.6249C98.0003 22.9973 98.1343 23.3815 98.2237 23.7775C98.3131 24.1774 98.3578 24.5773 98.3578 24.9811C98.3578 25.3849 98.3131 25.7887 98.2237 26.1846C98.1343 26.5806 98.0003 26.9648 97.8215 27.3412C97.6472 27.7136 97.4282 28.0704 97.1734 28.4036C96.9187 28.7408 96.6237 29.0544 96.2975 29.3406C95.9712 29.6268 95.6181 29.8816 95.2338 30.1051C94.8494 30.3325 94.4472 30.5207 94.0181 30.6736C93.5935 30.8304 93.1555 30.948 92.7041 31.0264C92.2483 31.1048 91.7924 31.144 91.332 31.144H77.2805V43.4699H83.7655C84.4582 43.4699 85.142 43.5287 85.8214 43.6463C86.5007 43.7679 87.1577 43.9404 87.7968 44.1756C88.4359 44.4069 89.0438 44.6892 89.6203 45.0263C90.1968 45.3635 90.7287 45.7477 91.2158 46.1789C91.7075 46.6063 92.141 47.0728 92.5254 47.5785C92.9097 48.0843 93.236 48.6175 93.4997 49.1781C93.7678 49.7387 93.9645 50.315 94.103 50.9109C94.2371 51.5068 94.3041 52.1067 94.3041 52.7143C94.3041 53.1613 94.2639 53.6043 94.1924 54.0473L91.2605 72.0735C91.1622 72.6773 90.9656 73.2575 90.6706 73.8142C90.3756 74.367 89.9913 74.8727 89.522 75.3275C89.0572 75.7823 88.5208 76.1704 87.922 76.484C87.3275 76.8016 86.6884 77.0329 86.0091 77.1819L71.9576 80.2633C71.3989 80.3849 70.8313 80.4476 70.2548 80.4476Z" fill="#FFDE00"/>
<path d="M55.9539 80.4476C54.85 80.4476 53.7997 80.232 52.812 79.7968L38.7605 73.6339C38.3448 73.4535 37.956 73.2379 37.594 72.9909C37.2275 72.7439 36.8923 72.4656 36.5929 72.1598C36.289 71.854 36.0253 71.5247 35.7929 71.1718C35.5649 70.8229 35.3772 70.4544 35.2342 70.0702C35.0867 69.686 34.9839 69.2939 34.9258 68.8901C34.8677 68.4902 34.8543 68.0864 34.8901 67.6826C34.9213 67.2788 34.9973 66.8828 35.1225 66.4908C35.2431 66.0987 35.4085 65.7224 35.6141 65.3617C35.8197 65.001 36.0655 64.6599 36.3471 64.3385C36.6331 64.017 36.9459 63.7269 37.2945 63.4603C37.6432 63.1976 38.0186 62.9624 38.4208 62.7624C38.8231 62.5625 39.2432 62.3978 39.6812 62.2685C40.1192 62.143 40.5661 62.0528 41.0264 62.0019C41.4823 61.9509 41.9426 61.9431 42.403 61.9705C42.8633 62.0019 43.3147 62.0685 43.7616 62.1744C44.2041 62.2841 44.6332 62.4253 45.0488 62.6095L48.9282 64.311V31.144H34.8767C34.4163 31.144 33.9604 31.1048 33.509 31.0264C33.0532 30.948 32.6152 30.8304 32.1906 30.6736C31.7615 30.5207 31.3593 30.3325 30.9749 30.1051C30.5906 29.8816 30.2375 29.6268 29.9112 29.3406C29.585 29.0544 29.2945 28.7408 29.0353 28.4036C28.7805 28.0704 28.5615 27.7136 28.3872 27.3412C28.2084 26.9648 28.0788 26.5806 27.985 26.1846C27.8956 25.7887 27.8509 25.3849 27.8509 24.9811C27.8509 24.5773 27.8956 24.1774 27.985 23.7775C28.0788 23.3815 28.2084 22.9973 28.3872 22.6249C28.5615 22.2485 28.7805 21.8957 29.0353 21.5585C29.2945 21.2214 29.585 20.9116 29.9112 20.6254C30.2375 20.3393 30.5906 20.0805 30.9749 19.857C31.3593 19.6336 31.7615 19.4415 32.1906 19.2886C32.6152 19.1318 33.0532 19.0181 33.509 18.9357C33.9604 18.8573 34.4163 18.8181 34.8767 18.8181H55.9539C56.4143 18.8181 56.8746 18.8573 57.326 18.9357C57.7774 19.0181 58.2154 19.1318 58.6445 19.2886C59.069 19.4415 59.4758 19.6336 59.8556 19.857C60.24 20.0805 60.5975 20.3393 60.9238 20.6254C61.2501 20.9116 61.5406 21.2214 61.7953 21.5585C62.0501 21.8957 62.2691 22.2485 62.4434 22.6249C62.6221 22.9973 62.7562 23.3815 62.8456 23.7775C62.935 24.1774 62.9797 24.5773 62.9797 24.9811V74.2846C62.9797 74.6885 62.935 75.0883 62.8456 75.4882C62.7562 75.8842 62.6221 76.2684 62.4434 76.6408C62.2691 77.0172 62.0501 77.37 61.7953 77.7072C61.5406 78.0444 61.2501 78.3541 60.9238 78.6403C60.5975 78.9265 60.24 79.1852 59.8556 79.4087C59.4758 79.6321 59.069 79.8242 58.6445 79.9771C58.2154 80.134 57.7774 80.2477 57.326 80.33C56.8746 80.4084 56.4143 80.4476 55.9539 80.4476Z" fill="#FFDE00"/>
<mask id="mask0_714_253" style="mask-type:luminance" maskUnits="userSpaceOnUse" x="0" y="0" width="127" height="115">
<path d="M0 0H127V114.414H0V0Z" fill="white"/>
</mask>
<g mask="url(#mask0_714_253)">
<path d="M63.5804 114.187C62.8207 114.191 62.0832 114.085 61.3592 113.877L19.2091 101.551C18.5834 101.371 18.0024 101.116 17.4616 100.795C16.9208 100.469 16.4426 100.085 16.0225 99.6422C15.6068 99.1991 15.2627 98.7169 14.999 98.1916C14.7353 97.6662 14.5565 97.1174 14.4672 96.5489L0.415636 7.18617C0.348597 6.751 0.330718 6.31191 0.370942 5.87282C0.406697 5.43373 0.496083 5.00248 0.639101 4.57907C0.782119 4.15958 0.974299 3.75578 1.22011 3.36765C1.46146 2.98345 1.74749 2.62277 2.07375 2.28953C2.40448 1.95629 2.77096 1.65834 3.1732 1.39567C3.57544 1.133 4.00896 0.909531 4.46483 0.72919C4.9207 0.544929 5.39445 0.407714 5.88607 0.313623C6.3777 0.219533 6.87379 0.172485 7.37436 0.172485H119.787C120.287 0.172485 120.783 0.219533 121.275 0.313623C121.762 0.407714 122.236 0.544929 122.696 0.72527C123.152 0.909531 123.581 1.133 123.983 1.39567C124.385 1.65834 124.752 1.95629 125.083 2.28561C125.409 2.61885 125.695 2.97953 125.941 3.36373C126.182 3.74794 126.374 4.15174 126.517 4.57515C126.66 4.99464 126.75 5.42589 126.79 5.86498C126.83 6.30407 126.812 6.74316 126.745 7.17833L112.694 96.5372C112.604 97.1095 112.43 97.6584 112.166 98.1837C111.903 98.713 111.559 99.1952 111.138 99.6382C110.723 100.081 110.24 100.465 109.699 100.791C109.158 101.116 108.577 101.371 107.956 101.551L65.8017 113.877C65.0777 114.085 64.3402 114.191 63.5804 114.187ZM27.7902 91.076L63.5804 101.528L99.3707 91.0524L111.724 12.4984H15.4549L27.7902 91.076Z" fill="#FFDE00"/>
</g>
</svg>
